<mxfile host="65bd71144e">
    <diagram id="58SO3tEJWvLtK6XkHxIX" name="Page-1">
        <mxGraphModel dx="1315" dy="1118" grid="1" gridSize="10" guides="1" tooltips="1" connect="1" arrows="1" fold="1" page="1" pageScale="1" pageWidth="850" pageHeight="1100" math="0" shadow="0">
            <root>
                <mxCell id="0"/>
                <mxCell id="1" parent="0"/>
                <mxCell id="461" value="" style="rounded=0;whiteSpace=wrap;html=1;" vertex="1" parent="1">
                    <mxGeometry x="710" y="290" width="240" height="270" as="geometry"/>
                </mxCell>
                <mxCell id="434" value="" style="rounded=0;whiteSpace=wrap;html=1;" vertex="1" parent="1">
                    <mxGeometry x="130" y="290" width="240" height="210" as="geometry"/>
                </mxCell>
                <mxCell id="435" value="Main Code" style="text;strokeColor=none;fillColor=none;html=1;fontSize=16;fontStyle=1;verticalAlign=middle;align=center;" vertex="1" parent="1">
                    <mxGeometry x="230" y="300" width="100" height="40" as="geometry"/>
                </mxCell>
                <UserObject label="0x100" placeholders="1" name="Variable" id="436">
                    <mxCell style="text;html=1;strokeColor=none;fillColor=none;align=center;verticalAlign=middle;whiteSpace=wrap;overflow=hidden;fontSize=16;" vertex="1" parent="1">
                        <mxGeometry x="130" y="370" width="80" height="20" as="geometry"/>
                    </mxCell>
                </UserObject>
                <mxCell id="453" style="edgeStyle=none;html=1;exitX=1;exitY=0.5;exitDx=0;exitDy=0;fontSize=16;" edge="1" parent="1" source="437" target="442">
                    <mxGeometry relative="1" as="geometry"/>
                </mxCell>
                <mxCell id="437" value="Call Cyan" style="rounded=0;whiteSpace=wrap;html=1;fontSize=16;" vertex="1" parent="1">
                    <mxGeometry x="215" y="355" width="130" height="50" as="geometry"/>
                </mxCell>
                <UserObject label="0x104" placeholders="1" name="Variable" id="438">
                    <mxCell style="text;html=1;strokeColor=none;fillColor=none;align=center;verticalAlign=middle;whiteSpace=wrap;overflow=hidden;fontSize=16;" vertex="1" parent="1">
                        <mxGeometry x="130" y="435" width="80" height="20" as="geometry"/>
                    </mxCell>
                </UserObject>
                <mxCell id="439" value="More Stuff" style="rounded=0;whiteSpace=wrap;html=1;fontSize=16;strokeWidth=3;" vertex="1" parent="1">
                    <mxGeometry x="215" y="420" width="130" height="50" as="geometry"/>
                </mxCell>
                <mxCell id="440" value="" style="rounded=0;whiteSpace=wrap;html=1;" vertex="1" parent="1">
                    <mxGeometry x="420" y="290" width="240" height="430" as="geometry"/>
                </mxCell>
                <mxCell id="441" value="Cyan" style="text;strokeColor=none;fillColor=none;html=1;fontSize=16;fontStyle=1;verticalAlign=middle;align=center;" vertex="1" parent="1">
                    <mxGeometry x="520" y="300" width="100" height="40" as="geometry"/>
                </mxCell>
                <UserObject label="0x200" placeholders="1" name="Variable" id="442">
                    <mxCell style="text;html=1;strokeColor=none;fillColor=none;align=center;verticalAlign=middle;whiteSpace=wrap;overflow=hidden;fontSize=16;" vertex="1" parent="1">
                        <mxGeometry x="420" y="370" width="80" height="20" as="geometry"/>
                    </mxCell>
                </UserObject>
                <mxCell id="443" value="Save LR" style="rounded=0;whiteSpace=wrap;html=1;fontSize=16;" vertex="1" parent="1">
                    <mxGeometry x="505" y="355" width="130" height="50" as="geometry"/>
                </mxCell>
                <UserObject label="0x204" placeholders="1" name="Variable" id="444">
                    <mxCell style="text;html=1;strokeColor=none;fillColor=none;align=center;verticalAlign=middle;whiteSpace=wrap;overflow=hidden;fontSize=16;" vertex="1" parent="1">
                        <mxGeometry x="420" y="435" width="80" height="20" as="geometry"/>
                    </mxCell>
                </UserObject>
                <mxCell id="474" style="edgeStyle=none;html=1;exitX=1;exitY=0.5;exitDx=0;exitDy=0;entryX=0;entryY=0.5;entryDx=0;entryDy=0;fontSize=16;" edge="1" parent="1" source="445" target="463">
                    <mxGeometry relative="1" as="geometry">
                        <Array as="points">
                            <mxPoint x="680" y="445"/>
                            <mxPoint x="680" y="380"/>
                        </Array>
                    </mxGeometry>
                </mxCell>
                <mxCell id="445" value="Call Nyan" style="rounded=0;whiteSpace=wrap;html=1;fontSize=16;" vertex="1" parent="1">
                    <mxGeometry x="505" y="420" width="130" height="50" as="geometry"/>
                </mxCell>
                <mxCell id="447" value="Drink Coffee" style="rounded=0;whiteSpace=wrap;html=1;fontSize=16;strokeWidth=3;" vertex="1" parent="1">
                    <mxGeometry x="505" y="490" width="130" height="50" as="geometry"/>
                </mxCell>
                <mxCell id="448" value="Restore LR" style="rounded=0;whiteSpace=wrap;html=1;fontSize=16;" vertex="1" parent="1">
                    <mxGeometry x="505" y="560" width="130" height="50" as="geometry"/>
                </mxCell>
                <mxCell id="454" style="edgeStyle=none;html=1;exitX=0;exitY=0.5;exitDx=0;exitDy=0;entryX=1;entryY=0.5;entryDx=0;entryDy=0;fontSize=16;" edge="1" parent="1" source="449" target="439">
                    <mxGeometry relative="1" as="geometry">
                        <Array as="points">
                            <mxPoint x="400" y="655"/>
                            <mxPoint x="400" y="445"/>
                        </Array>
                    </mxGeometry>
                </mxCell>
                <mxCell id="449" value="Return" style="rounded=0;whiteSpace=wrap;html=1;fontSize=16;" vertex="1" parent="1">
                    <mxGeometry x="505" y="630" width="130" height="50" as="geometry"/>
                </mxCell>
                <UserObject label="0x208" placeholders="1" name="Variable" id="450">
                    <mxCell style="text;html=1;strokeColor=none;fillColor=none;align=center;verticalAlign=middle;whiteSpace=wrap;overflow=hidden;fontSize=16;" vertex="1" parent="1">
                        <mxGeometry x="420" y="505" width="80" height="20" as="geometry"/>
                    </mxCell>
                </UserObject>
                <UserObject label="0x20c" placeholders="1" name="Variable" id="451">
                    <mxCell style="text;html=1;strokeColor=none;fillColor=none;align=center;verticalAlign=middle;whiteSpace=wrap;overflow=hidden;fontSize=16;" vertex="1" parent="1">
                        <mxGeometry x="420" y="575" width="80" height="20" as="geometry"/>
                    </mxCell>
                </UserObject>
                <UserObject label="0x210" placeholders="1" name="Variable" id="452">
                    <mxCell style="text;html=1;strokeColor=none;fillColor=none;align=center;verticalAlign=middle;whiteSpace=wrap;overflow=hidden;fontSize=16;" vertex="1" parent="1">
                        <mxGeometry x="420" y="645" width="80" height="20" as="geometry"/>
                    </mxCell>
                </UserObject>
                <mxCell id="455" value="" style="rounded=0;whiteSpace=wrap;html=1;strokeWidth=1;fontSize=16;" vertex="1" parent="1">
                    <mxGeometry x="160" y="610" width="130" height="30" as="geometry"/>
                </mxCell>
                <mxCell id="456" value="" style="rounded=0;whiteSpace=wrap;html=1;strokeWidth=1;fontSize=16;" vertex="1" parent="1">
                    <mxGeometry x="160" y="640" width="130" height="30" as="geometry"/>
                </mxCell>
                <mxCell id="457" value="LR = 0x104" style="rounded=0;whiteSpace=wrap;html=1;strokeWidth=1;fontSize=16;" vertex="1" parent="1">
                    <mxGeometry x="160" y="670" width="130" height="30" as="geometry"/>
                </mxCell>
                <mxCell id="459" value="" style="edgeStyle=none;html=1;fontSize=16;entryX=0;entryY=0;entryDx=0;entryDy=0;" edge="1" parent="1" source="458" target="457">
                    <mxGeometry relative="1" as="geometry"/>
                </mxCell>
                <UserObject label="SP" placeholders="1" name="Variable" id="458">
                    <mxCell style="text;html=1;strokeColor=none;fillColor=none;align=center;verticalAlign=middle;whiteSpace=wrap;overflow=hidden;strokeWidth=1;fontSize=16;" vertex="1" parent="1">
                        <mxGeometry x="70" y="660" width="40" height="20" as="geometry"/>
                    </mxCell>
                </UserObject>
                <UserObject label="&lt;b&gt;Stack&lt;/b&gt;" placeholders="1" name="Variable" id="460">
                    <mxCell style="text;html=1;strokeColor=none;fillColor=none;align=center;verticalAlign=middle;whiteSpace=wrap;overflow=hidden;strokeWidth=1;fontSize=16;" vertex="1" parent="1">
                        <mxGeometry x="192.5" y="575" width="65" height="20" as="geometry"/>
                    </mxCell>
                </UserObject>
                <mxCell id="462" value="Nyan" style="text;strokeColor=none;fillColor=none;html=1;fontSize=16;fontStyle=1;verticalAlign=middle;align=center;" vertex="1" parent="1">
                    <mxGeometry x="810" y="300" width="100" height="40" as="geometry"/>
                </mxCell>
                <UserObject label="0x300" placeholders="1" name="Variable" id="463">
                    <mxCell style="text;html=1;strokeColor=none;fillColor=none;align=center;verticalAlign=middle;whiteSpace=wrap;overflow=hidden;fontSize=16;" vertex="1" parent="1">
                        <mxGeometry x="710" y="370" width="80" height="20" as="geometry"/>
                    </mxCell>
                </UserObject>
                <mxCell id="464" value="Meow" style="rounded=0;whiteSpace=wrap;html=1;fontSize=16;" vertex="1" parent="1">
                    <mxGeometry x="795" y="355" width="130" height="50" as="geometry"/>
                </mxCell>
                <UserObject label="0x304" placeholders="1" name="Variable" id="465">
                    <mxCell style="text;html=1;strokeColor=none;fillColor=none;align=center;verticalAlign=middle;whiteSpace=wrap;overflow=hidden;fontSize=16;" vertex="1" parent="1">
                        <mxGeometry x="710" y="435" width="80" height="20" as="geometry"/>
                    </mxCell>
                </UserObject>
                <mxCell id="466" value="Play" style="rounded=0;whiteSpace=wrap;html=1;fontSize=16;" vertex="1" parent="1">
                    <mxGeometry x="795" y="420" width="130" height="50" as="geometry"/>
                </mxCell>
                <mxCell id="473" style="edgeStyle=none;html=1;exitX=0.5;exitY=1;exitDx=0;exitDy=0;entryX=1;entryY=0.5;entryDx=0;entryDy=0;fontSize=16;" edge="1" parent="1" source="467" target="447">
                    <mxGeometry relative="1" as="geometry">
                        <Array as="points">
                            <mxPoint x="860" y="600"/>
                            <mxPoint x="690" y="600"/>
                            <mxPoint x="690" y="515"/>
                        </Array>
                    </mxGeometry>
                </mxCell>
                <mxCell id="476" style="edgeStyle=none;html=1;exitX=0.75;exitY=1;exitDx=0;exitDy=0;fontSize=16;entryX=0.461;entryY=-0.067;entryDx=0;entryDy=0;entryPerimeter=0;" edge="1" parent="1" source="467" target="475">
                    <mxGeometry relative="1" as="geometry"/>
                </mxCell>
                <mxCell id="467" value="Return" style="rounded=0;whiteSpace=wrap;html=1;fontSize=16;strokeWidth=1;" vertex="1" parent="1">
                    <mxGeometry x="795" y="490" width="130" height="50" as="geometry"/>
                </mxCell>
                <UserObject label="0x308" placeholders="1" name="Variable" id="470">
                    <mxCell style="text;html=1;strokeColor=none;fillColor=none;align=center;verticalAlign=middle;whiteSpace=wrap;overflow=hidden;fontSize=16;" vertex="1" parent="1">
                        <mxGeometry x="710" y="505" width="80" height="20" as="geometry"/>
                    </mxCell>
                </UserObject>
                <mxCell id="475" value="&lt;b&gt;Link Register:&lt;/b&gt;&amp;nbsp;0x208" style="rounded=0;whiteSpace=wrap;html=1;strokeWidth=1;fontSize=16;" vertex="1" parent="1">
                    <mxGeometry x="810" y="630" width="180" height="30" as="geometry"/>
                </mxCell>
            </root>
        </mxGraphModel>
    </diagram>
</mxfile>